<?xml version="1.0" standalone="no"?>
<!DOCTYPE svg PUBLIC "-//W3C//DTD SVG 20010904//EN"
 "http://www.w3.org/TR/2001/REC-SVG-20010904/DTD/svg10.dtd">
<svg version="1.0" xmlns="http://www.w3.org/2000/svg"
 width="300.000000pt" height="300.000000pt" viewBox="0 0 300.000000 300.000000"
 preserveAspectRatio="xMidYMid meet">
<metadata>
Created by potrace 1.10, written by Peter Selinger 2001-2011
</metadata>
<g transform="translate(0.000000,300.000000) scale(0.100000,-0.100000)"
fill="#000000" stroke="none">
<path d="M747 2993 c414 -2 1092 -2 1505 0 414 1 76 2 -752 2 -828 0 -1166 -1
-753 -2z"/>
<path d="M1333 2455 c-205 -37 -378 -128 -523 -274 -119 -120 -195 -249 -246
-416 -26 -84 -28 -102 -28 -270 0 -167 2 -186 27 -268 51 -166 135 -307 253
-423 480 -475 1285 -327 1569 289 63 136 80 221 80 402 0 192 -18 274 -95 430
-188 386 -619 606 -1037 530z m354 -30 c239 -50 459 -195 592 -388 79 -115
146 -293 164 -435 5 -41 3 -45 -50 -102 -107 -116 -261 -196 -462 -241 -100
-23 -104 -23 -115 -5 -52 88 -120 145 -196 166 -53 15 -161 12 -214 -6 -55
-19 -148 -99 -166 -145 -13 -30 -15 -31 -58 -24 -67 10 -326 102 -407 144 -82
42 -200 152 -211 197 -17 68 45 269 125 403 50 85 173 217 257 277 84 60 233
128 324 149 41 9 80 18 85 20 31 10 273 3 332 -10z m-1017 -1006 c15 -15 117
-72 178 -98 70 -29 268 -93 329 -106 25 -5 40 -1 63 15 16 12 30 27 30 33 0 7
22 33 48 59 108 104 297 104 410 -1 23 -22 42 -44 42 -50 0 -6 12 -22 28 -36
28 -27 31 -27 127 -9 85 15 242 71 300 107 57 34 143 98 164 121 32 34 41 33
41 -7 0 -43 -10 -55 -102 -111 -122 -75 -218 -114 -355 -147 -94 -22 -135 -37
-154 -55 l-25 -24 -12 59 c-17 83 -59 135 -135 172 -117 55 -236 32 -324 -63
-54 -60 -73 -138 -49 -202 40 -104 140 -171 255 -170 77 1 134 25 195 83 26
24 35 29 27 14 -17 -33 -80 -81 -130 -98 -153 -52 -327 30 -362 172 -17 67
-43 89 -129 108 -232 52 -354 101 -490 196 -68 48 -70 51 -70 91 l0 42 47 -44
c26 -25 50 -47 53 -51z m85 -156 c98 -51 163 -72 328 -108 124 -27 127 -29
127 -55 0 -15 14 -54 31 -88 70 -140 239 -203 399 -148 82 28 164 114 186 193
l16 60 82 17 c184 39 292 83 441 179 38 25 71 44 73 43 7 -8 -30 -143 -59
-215 -86 -217 -268 -407 -483 -507 -120 -55 -207 -75 -349 -81 -142 -6 -240 6
-345 41 -153 53 -277 132 -387 247 -142 150 -214 296 -260 527 l-7 32 64 -47
c34 -27 99 -67 143 -90z m846 55 c56 -16 114 -70 135 -124 15 -40 16 -53 5
-93 -24 -90 -110 -151 -216 -151 -74 0 -129 24 -172 73 -68 78 -64 170 11 243
63 60 149 79 237 52z"/>
<path d="M1443 1250 c-106 -48 -110 -186 -8 -234 87 -41 177 -26 235 40 78 89
-4 214 -140 214 -25 0 -64 -9 -87 -20z m167 -20 c65 -33 86 -84 58 -145 -41
-91 -235 -91 -276 0 -51 112 93 209 218 145z"/>
</g>
</svg>
