<?xml version="1.0" standalone="no"?>
<!DOCTYPE svg PUBLIC "-//W3C//DTD SVG 20010904//EN"
 "http://www.w3.org/TR/2001/REC-SVG-20010904/DTD/svg10.dtd">
<svg version="1.0" xmlns="http://www.w3.org/2000/svg"
 width="300.000000pt" height="266.000000pt" viewBox="0 0 300.000000 266.000000"
 preserveAspectRatio="xMidYMid meet">
<metadata>
Created by potrace 1.10, written by Peter Selinger 2001-2011
</metadata>
<g transform="translate(0.000000,266.000000) scale(0.100000,-0.100000)"
fill="#000000" stroke="none">
<path d="M747 2653 c414 -2 1092 -2 1505 0 414 1 76 2 -752 2 -828 0 -1166 -1
-753 -2z"/>
<path d="M1322 2229 c-179 -32 -320 -107 -458 -244 -83 -83 -108 -115 -146
-190 -115 -225 -135 -451 -59 -672 96 -278 314 -480 598 -552 112 -29 298 -29
409 -1 393 100 663 465 641 865 -21 364 -263 669 -612 770 -101 29 -281 41
-373 24z m400 -76 c259 -91 438 -279 513 -539 98 -338 -36 -700 -332 -894
-135 -89 -275 -130 -444 -130 -232 0 -429 86 -592 259 -88 94 -156 221 -188
350 -29 115 -23 331 11 431 92 273 296 468 565 541 58 16 97 18 225 16 143 -3
162 -5 242 -34z"/>
<path d="M1285 2121 c-268 -73 -473 -273 -545 -532 -26 -96 -26 -130 3 -157
22 -21 31 -22 233 -22 238 0 228 -3 273 87 29 59 97 111 158 123 119 22 217
-27 272 -137 36 -72 39 -73 276 -73 208 0 212 0 233 23 26 28 28 61 7 142 -63
242 -257 448 -500 531 -109 37 -303 44 -410 15z m311 -32 c172 -31 355 -150
455 -295 46 -67 95 -179 113 -261 9 -40 16 -74 16 -77 0 -4 -101 -6 -223 -6
l-224 0 -14 43 c-19 59 -100 139 -163 160 -75 26 -141 22 -211 -11 -70 -33
-115 -81 -140 -146 l-18 -46 -219 0 -218 0 6 28 c25 114 39 157 73 227 47 94
124 189 201 247 74 55 201 115 280 132 80 18 206 20 286 5z"/>
<path d="M1424 1590 c-121 -27 -192 -154 -150 -265 21 -55 94 -122 143 -131
158 -30 289 127 228 274 -37 87 -136 141 -221 122z m112 -56 c50 -24 77 -68
82 -133 3 -46 0 -62 -20 -90 -49 -72 -127 -98 -199 -68 -68 28 -113 119 -95
191 8 31 62 95 90 106 35 14 106 11 142 -6z"/>
<path d="M753 1365 c-21 -9 -35 -23 -39 -41 -18 -72 72 -297 165 -410 90 -110
247 -211 386 -249 94 -25 227 -30 322 -12 161 31 278 93 397 212 95 95 159
200 193 317 29 102 30 149 2 174 -19 17 -38 19 -231 19 l-210 -1 -27 -31 c-14
-17 -38 -52 -53 -77 -16 -27 -46 -58 -75 -76 -96 -61 -246 -31 -313 62 -17 22
-30 46 -30 52 -1 23 -42 58 -77 67 -64 15 -373 10 -410 -6z m451 -80 c22 -56
85 -121 144 -147 71 -32 176 -28 243 8 59 32 101 80 126 141 l18 43 218 0 218
0 -7 -37 c-13 -73 -46 -169 -82 -238 -48 -91 -181 -228 -273 -279 -278 -154
-607 -114 -839 100 -106 99 -183 237 -214 386 -7 37 -12 69 -11 70 2 2 102 2
223 0 l220 -3 16 -44z"/>
</g>
</svg>
